<svg width="144" height="27" viewBox="0 0 144 27" fill="none" xmlns="http://www.w3.org/2000/svg">
<path d="M5.60677 20.126C4.76677 20.126 4.01077 19.982 3.33877 19.694C2.66677 19.394 2.13877 18.974 1.75477 18.434C1.37077 17.894 1.17877 17.264 1.17877 16.544H3.37477C3.42277 17.084 3.63277 17.528 4.00477 17.876C4.38877 18.224 4.92277 18.398 5.60677 18.398C6.31477 18.398 6.86677 18.23 7.26277 17.894C7.65877 17.546 7.85677 17.102 7.85677 16.562C7.85677 16.142 7.73077 15.8 7.47877 15.536C7.23877 15.272 6.93277 15.068 6.56077 14.924C6.20077 14.78 5.69677 14.624 5.04877 14.456C4.23277 14.24 3.56677 14.024 3.05077 13.808C2.54677 13.58 2.11477 13.232 1.75477 12.764C1.39477 12.296 1.21477 11.672 1.21477 10.892C1.21477 10.172 1.39477 9.542 1.75477 9.002C2.11477 8.462 2.61877 8.048 3.26677 7.76C3.91477 7.472 4.66477 7.328 5.51677 7.328C6.72877 7.328 7.71877 7.634 8.48677 8.246C9.26677 8.846 9.69877 9.674 9.78277 10.73H7.51477C7.47877 10.274 7.26277 9.884 6.86677 9.56C6.47077 9.236 5.94877 9.074 5.30077 9.074C4.71277 9.074 4.23277 9.224 3.86077 9.524C3.48877 9.824 3.30277 10.256 3.30277 10.82C3.30277 11.204 3.41677 11.522 3.64477 11.774C3.88477 12.014 4.18477 12.206 4.54477 12.35C4.90477 12.494 5.39677 12.65 6.02077 12.818C6.84877 13.046 7.52077 13.274 8.03677 13.502C8.56477 13.73 9.00877 14.084 9.36877 14.564C9.74077 15.032 9.92677 15.662 9.92677 16.454C9.92677 17.09 9.75277 17.69 9.40477 18.254C9.06877 18.818 8.57077 19.274 7.91077 19.622C7.26277 19.958 6.49477 20.126 5.60677 20.126ZM21.438 14.798C21.438 15.17 21.414 15.506 21.366 15.806H13.788C13.848 16.598 14.142 17.234 14.67 17.714C15.198 18.194 15.846 18.434 16.614 18.434C17.718 18.434 18.498 17.972 18.954 17.048H21.168C20.868 17.96 20.322 18.71 19.53 19.298C18.75 19.874 17.778 20.162 16.614 20.162C15.666 20.162 14.814 19.952 14.058 19.532C13.314 19.1 12.726 18.5 12.294 17.732C11.874 16.952 11.664 16.052 11.664 15.032C11.664 14.012 11.868 13.118 12.276 12.35C12.696 11.57 13.278 10.97 14.022 10.55C14.778 10.13 15.642 9.92 16.614 9.92C17.55 9.92 18.384 10.124 19.116 10.532C19.848 10.94 20.418 11.516 20.826 12.26C21.234 12.992 21.438 13.838 21.438 14.798ZM19.296 14.15C19.284 13.394 19.014 12.788 18.486 12.332C17.958 11.876 17.304 11.648 16.524 11.648C15.816 11.648 15.21 11.876 14.706 12.332C14.202 12.776 13.902 13.382 13.806 14.15H19.296ZM32.5474 14.798C32.5474 15.17 32.5234 15.506 32.4754 15.806H24.8974C24.9574 16.598 25.2514 17.234 25.7794 17.714C26.3074 18.194 26.9554 18.434 27.7234 18.434C28.8274 18.434 29.6074 17.972 30.0634 17.048H32.2774C31.9774 17.96 31.4314 18.71 30.6394 19.298C29.8594 19.874 28.8874 20.162 27.7234 20.162C26.7754 20.162 25.9234 19.952 25.1674 19.532C24.4234 19.1 23.8354 18.5 23.4034 17.732C22.9834 16.952 22.7734 16.052 22.7734 15.032C22.7734 14.012 22.9774 13.118 23.3854 12.35C23.8054 11.57 24.3874 10.97 25.1314 10.55C25.8874 10.13 26.7514 9.92 27.7234 9.92C28.6594 9.92 29.4934 10.124 30.2254 10.532C30.9574 10.94 31.5274 11.516 31.9354 12.26C32.3434 12.992 32.5474 13.838 32.5474 14.798ZM30.4054 14.15C30.3934 13.394 30.1234 12.788 29.5954 12.332C29.0674 11.876 28.4134 11.648 27.6334 11.648C26.9254 11.648 26.3194 11.876 25.8154 12.332C25.3114 12.776 25.0114 13.382 24.9154 14.15H30.4054ZM41.2946 6.68V20H39.2426V6.68H41.2946ZM45.0327 8.768C44.6607 8.768 44.3487 8.642 44.0967 8.39C43.8447 8.138 43.7187 7.826 43.7187 7.454C43.7187 7.082 43.8447 6.77 44.0967 6.518C44.3487 6.266 44.6607 6.14 45.0327 6.14C45.3927 6.14 45.6987 6.266 45.9507 6.518C46.2027 6.77 46.3287 7.082 46.3287 7.454C46.3287 7.826 46.2027 8.138 45.9507 8.39C45.6987 8.642 45.3927 8.768 45.0327 8.768ZM46.0407 10.082V20H43.9887V10.082H46.0407ZM52.5688 18.164L55.3768 10.082H57.5548L53.7748 20H51.3268L47.5648 10.082H49.7608L52.5688 18.164ZM68.1959 14.798C68.1959 15.17 68.1719 15.506 68.1239 15.806H60.5459C60.6059 16.598 60.8999 17.234 61.4279 17.714C61.9559 18.194 62.6039 18.434 63.3719 18.434C64.4759 18.434 65.2559 17.972 65.7119 17.048H67.9259C67.6259 17.96 67.0799 18.71 66.2879 19.298C65.5079 19.874 64.5359 20.162 63.3719 20.162C62.4239 20.162 61.5719 19.952 60.8159 19.532C60.0719 19.1 59.4839 18.5 59.0519 17.732C58.6319 16.952 58.4219 16.052 58.4219 15.032C58.4219 14.012 58.6259 13.118 59.0339 12.35C59.4539 11.57 60.0359 10.97 60.7799 10.55C61.5359 10.13 62.3999 9.92 63.3719 9.92C64.3079 9.92 65.1419 10.124 65.8739 10.532C66.6059 10.94 67.1759 11.516 67.5839 12.26C67.9919 12.992 68.1959 13.838 68.1959 14.798ZM66.0539 14.15C66.0419 13.394 65.7719 12.788 65.2439 12.332C64.7159 11.876 64.0619 11.648 63.2819 11.648C62.5739 11.648 61.9679 11.876 61.4639 12.332C60.9599 12.776 60.6599 13.382 60.5639 14.15H66.0539Z" fill="#1A2236"/>
<path fill-rule="evenodd" clip-rule="evenodd" d="M134.6 4.73237H141.043L130.788 14.9873L132.013 16.2123L142.268 5.95746V12.3997H144V3.86614V2.99991H143.134H134.6V4.73237ZM122.866 6.19964H127.133V7.9321H123.732V23.2668H139.067V19.8665H140.8V24.133V24.9993H139.933H122.866H122V24.133V7.06587V6.19964H122.866Z" fill="#1A2236"/>
</svg>
